M48
; DRILL file {KiCad (5.1.2)-2} date 27/07/2019 17:10:27
; FORMAT={-:-/ absolute / inch / decimal}
; #@! TF.CreationDate,2019-07-27T17:10:27+02:00
; #@! TF.GenerationSoftware,Kicad,Pcbnew,(5.1.2)-2
FMAT,2
INCH
T1C0.0157
T2C0.0236
T3C0.0315
T4C0.0394
T5C0.0433
T6C0.0598
T7C0.1260
%
G90
G05
T1
X4.1Y-4.65
X4.5Y-4.8
X5.5Y-4.3
X5.6Y-4.35
X5.65Y-4.2
X5.7Y-4.3
X5.7Y-4.45
X5.8Y-4.4
X5.85Y-4.45
T2
X3.1Y-5.8213
X3.1Y-5.9
T3
X5.3Y-5.1
X5.7Y-5.1
X4.55Y-5.8
X4.95Y-5.8
X5.3Y-3.5
X5.7Y-3.5
X5.3Y-3.3
X5.7Y-3.3
X2.55Y-4.9516
X2.55Y-5.05
X3.05Y-3.05
X3.05Y-3.15
X3.05Y-3.25
X3.05Y-3.35
X3.05Y-3.45
X3.05Y-3.55
X3.05Y-3.65
X3.05Y-3.75
X3.55Y-3.05
X3.55Y-3.15
X3.55Y-3.25
X3.55Y-3.35
X3.55Y-3.45
X3.55Y-3.55
X3.55Y-3.65
X3.55Y-3.75
X5.3Y-4.65
X5.7Y-4.65
X5.3Y-4.1
X5.7Y-4.1
X2.55Y-3.6516
X2.55Y-3.75
X3.05Y-4.35
X3.05Y-4.45
X3.05Y-4.55
X3.05Y-4.65
X3.05Y-4.75
X3.05Y-4.85
X3.05Y-4.95
X3.05Y-5.05
X3.55Y-4.35
X3.55Y-4.45
X3.55Y-4.55
X3.55Y-4.65
X3.55Y-4.75
X3.55Y-4.85
X3.55Y-4.95
X3.55Y-5.05
X3.8Y-5.8016
X3.8Y-5.9
X3.6Y-5.8016
X3.6Y-5.9
T4
X2.8Y-3.25
X2.8Y-3.35
X2.8Y-3.45
X2.8Y-3.55
X5.95Y-3.9
X5.95Y-4.0
X5.95Y-4.1
X5.95Y-4.2
X5.95Y-4.3
X5.95Y-4.4
X5.95Y-4.5
X5.95Y-4.6
X5.95Y-4.85
X5.95Y-4.95
X5.95Y-5.05
X5.95Y-5.15
X5.95Y-5.25
X2.8Y-4.55
X2.8Y-4.65
X2.8Y-4.75
X2.8Y-4.85
X5.95Y-3.35
X5.95Y-3.45
X5.95Y-3.55
X4.0Y-3.5
X4.0Y-3.6
X4.0Y-3.7
X4.0Y-3.8
X4.0Y-3.9
X4.0Y-4.0
X4.0Y-4.1
X4.0Y-4.2
X4.0Y-4.3
X4.0Y-4.4
X4.0Y-4.5
X4.0Y-4.6
X4.0Y-4.7
X4.0Y-4.8
X4.0Y-4.9
X4.0Y-5.0
X4.0Y-5.1
X4.0Y-5.2
X4.0Y-5.3
X5.0Y-3.5
X5.0Y-3.6
X5.0Y-3.7
X5.0Y-3.8
X5.0Y-3.9
X5.0Y-4.0
X5.0Y-4.1
X5.0Y-4.2
X5.0Y-4.3
X5.0Y-4.4
X5.0Y-4.5
X5.0Y-4.6
X5.0Y-4.7
X5.0Y-4.8
X5.0Y-4.9
X5.0Y-5.0
X5.0Y-5.1
X5.0Y-5.2
X5.0Y-5.3
T5
X3.25Y-5.8
X3.25Y-5.9
X3.25Y-6.0
X5.5Y-5.65
X5.6Y-5.65
X5.7Y-5.65
T6
X5.25Y-6.2
X5.45Y-6.2
X2.6Y-4.1
X2.6Y-4.3
X4.15Y-6.2
X4.35Y-6.2
X4.7Y-6.2
X4.9Y-6.2
X2.6Y-5.35
X2.6Y-5.55
X2.6Y-5.85
X2.6Y-6.05
X3.6Y-6.2
X3.8Y-6.2
T7
X2.6Y-3.0
X2.6Y-6.3
X5.9Y-6.3
X5.9Y-3.0
T0
M30
