G04 #@! TF.GenerationSoftware,KiCad,Pcbnew,(5.1.2)-2*
G04 #@! TF.CreationDate,2019-07-27T17:10:03+02:00*
G04 #@! TF.ProjectId,3D Scanner,33442053-6361-46e6-9e65-722e6b696361,1.0*
G04 #@! TF.SameCoordinates,Original*
G04 #@! TF.FileFunction,Copper,L2,Bot*
G04 #@! TF.FilePolarity,Positive*
%FSLAX46Y46*%
G04 Gerber Fmt 4.6, Leading zero omitted, Abs format (unit mm)*
G04 Created by KiCad (PCBNEW (5.1.2)-2) date 2019-07-27 17:10:03*
%MOMM*%
%LPD*%
G04 APERTURE LIST*
%ADD10C,0.050000*%
%ADD11O,1.600000X1.600000*%
%ADD12R,1.600000X1.600000*%
%ADD13C,3.000000*%
%ADD14R,3.000000X3.000000*%
%ADD15O,1.905000X2.000000*%
%ADD16R,1.905000X2.000000*%
%ADD17O,2.000000X1.905000*%
%ADD18R,2.000000X1.905000*%
%ADD19O,1.700000X1.700000*%
%ADD20R,1.700000X1.700000*%
%ADD21C,1.600000*%
%ADD22C,1.200000*%
%ADD23R,1.200000X1.200000*%
%ADD24C,0.800000*%
%ADD25C,0.250000*%
%ADD26C,1.250000*%
%ADD27C,0.750000*%
G04 APERTURE END LIST*
D10*
X58420000Y-163830000D02*
X58420000Y-68580000D01*
X157480000Y-68580000D02*
X157480000Y-163830000D01*
X58420000Y-68580000D02*
X157480000Y-68580000D01*
X58420000Y-167640000D02*
X58420000Y-163830000D01*
X157480000Y-167640000D02*
X58420000Y-167640000D01*
X157480000Y-163830000D02*
X157480000Y-167640000D01*
D11*
X90170000Y-77470000D03*
X77470000Y-95250000D03*
X90170000Y-80010000D03*
X77470000Y-92710000D03*
X90170000Y-82550000D03*
X77470000Y-90170000D03*
X90170000Y-85090000D03*
X77470000Y-87630000D03*
X90170000Y-87630000D03*
X77470000Y-85090000D03*
X90170000Y-90170000D03*
X77470000Y-82550000D03*
X90170000Y-92710000D03*
X77470000Y-80010000D03*
X90170000Y-95250000D03*
D12*
X77470000Y-77470000D03*
D11*
X90170000Y-110490000D03*
X77470000Y-128270000D03*
X90170000Y-113030000D03*
X77470000Y-125730000D03*
X90170000Y-115570000D03*
X77470000Y-123190000D03*
X90170000Y-118110000D03*
X77470000Y-120650000D03*
X90170000Y-120650000D03*
X77470000Y-118110000D03*
X90170000Y-123190000D03*
X77470000Y-115570000D03*
X90170000Y-125730000D03*
X77470000Y-113030000D03*
X90170000Y-128270000D03*
D12*
X77470000Y-110490000D03*
D13*
X66040000Y-140970000D03*
D14*
X66040000Y-135890000D03*
D13*
X66040000Y-109220000D03*
D14*
X66040000Y-104140000D03*
D13*
X66040000Y-153670000D03*
D14*
X66040000Y-148590000D03*
D13*
X138430000Y-157480000D03*
D14*
X133350000Y-157480000D03*
D13*
X124460000Y-157480000D03*
D14*
X119380000Y-157480000D03*
D13*
X110490000Y-157480000D03*
D14*
X105410000Y-157480000D03*
D13*
X96520000Y-157480000D03*
D14*
X91440000Y-157480000D03*
D15*
X139700000Y-143510000D03*
X142240000Y-143510000D03*
D16*
X144780000Y-143510000D03*
D17*
X82550000Y-152400000D03*
X82550000Y-149860000D03*
D18*
X82550000Y-147320000D03*
D19*
X127000000Y-116840000D03*
X127000000Y-124460000D03*
X127000000Y-111760000D03*
X127000000Y-106680000D03*
X127000000Y-119380000D03*
X127000000Y-101600000D03*
X127000000Y-127000000D03*
D20*
X127000000Y-88900000D03*
D19*
X127000000Y-93980000D03*
X127000000Y-99060000D03*
X127000000Y-129540000D03*
X127000000Y-132080000D03*
X127000000Y-134620000D03*
X127000000Y-104140000D03*
X127000000Y-91440000D03*
X127000000Y-114300000D03*
X127000000Y-96520000D03*
X127000000Y-121920000D03*
X127000000Y-109220000D03*
X101600000Y-116840000D03*
X101600000Y-124460000D03*
X101600000Y-111760000D03*
X101600000Y-106680000D03*
X101600000Y-119380000D03*
X101600000Y-101600000D03*
X101600000Y-127000000D03*
D20*
X101600000Y-88900000D03*
D19*
X101600000Y-93980000D03*
X101600000Y-99060000D03*
X101600000Y-129540000D03*
X101600000Y-132080000D03*
X101600000Y-134620000D03*
X101600000Y-104140000D03*
X101600000Y-91440000D03*
X101600000Y-114300000D03*
X101600000Y-96520000D03*
X101600000Y-121920000D03*
X101600000Y-109220000D03*
X151130000Y-130810000D03*
X151130000Y-125730000D03*
X151130000Y-123190000D03*
X151130000Y-128270000D03*
D20*
X151130000Y-133350000D03*
D19*
X71120000Y-123190000D03*
X71120000Y-120650000D03*
X71120000Y-118110000D03*
D20*
X71120000Y-115570000D03*
D19*
X71120000Y-90170000D03*
X71120000Y-87630000D03*
X71120000Y-85090000D03*
D20*
X71120000Y-82550000D03*
D19*
X151130000Y-116840000D03*
X151130000Y-114300000D03*
X151130000Y-111760000D03*
X151130000Y-109220000D03*
X151130000Y-106680000D03*
X151130000Y-104140000D03*
X151130000Y-101600000D03*
D20*
X151130000Y-99060000D03*
D19*
X151130000Y-85090000D03*
X151130000Y-87630000D03*
D20*
X151130000Y-90170000D03*
D11*
X144780000Y-129540000D03*
D21*
X134620000Y-129540000D03*
D11*
X115570000Y-147320000D03*
D21*
X125730000Y-147320000D03*
D11*
X144780000Y-104140000D03*
D21*
X134620000Y-104140000D03*
D11*
X144780000Y-118110000D03*
D21*
X134620000Y-118110000D03*
D11*
X134620000Y-88900000D03*
D21*
X144780000Y-88900000D03*
D11*
X134620000Y-83820000D03*
D21*
X144780000Y-83820000D03*
X64770000Y-125770000D03*
D12*
X64770000Y-128270000D03*
D21*
X64770000Y-92750000D03*
D12*
X64770000Y-95250000D03*
D21*
X96520000Y-147360000D03*
X96520000Y-149860000D03*
X91440000Y-147360000D03*
D12*
X91440000Y-149860000D03*
D22*
X78740000Y-147860000D03*
D23*
X78740000Y-149860000D03*
D24*
X148590000Y-113030000D03*
X142240000Y-110490000D03*
X144780000Y-109220000D03*
X143510000Y-106680000D03*
X139700000Y-109220000D03*
X104140000Y-118110000D03*
X144780000Y-113030000D03*
X147320000Y-111760000D03*
X114300000Y-121920000D03*
D25*
X144780000Y-116840000D02*
X144780000Y-118110000D01*
X148590000Y-113030000D02*
X144780000Y-116840000D01*
X128270000Y-124460000D02*
X134620000Y-118110000D01*
X127000000Y-124460000D02*
X128270000Y-124460000D01*
X139700000Y-123190000D02*
X151130000Y-123190000D01*
X134620000Y-118110000D02*
X139700000Y-123190000D01*
X142240000Y-101600000D02*
X151130000Y-101600000D01*
X127000000Y-116840000D02*
X142240000Y-101600000D01*
X142240000Y-110490000D02*
X143510000Y-109220000D01*
X143510000Y-109220000D02*
X144780000Y-109220000D01*
X143510000Y-106680000D02*
X142240000Y-106680000D01*
X142240000Y-106680000D02*
X139700000Y-109220000D01*
X119380000Y-118110000D02*
X121920000Y-115570000D01*
X121920000Y-111760000D02*
X127000000Y-106680000D01*
X121920000Y-115570000D02*
X121920000Y-111760000D01*
X104140000Y-118110000D02*
X119380000Y-118110000D01*
X144780000Y-113030000D02*
X146050000Y-111760000D01*
X146050000Y-111760000D02*
X147320000Y-111760000D01*
X127000000Y-104140000D02*
X134620000Y-104140000D01*
X151130000Y-99060000D02*
X127000000Y-99060000D01*
X114300000Y-121920000D02*
X118110000Y-125730000D01*
X151130000Y-128270000D02*
X148590000Y-125730000D01*
X118110000Y-125730000D02*
X148590000Y-125730000D01*
X148590000Y-125730000D02*
X151130000Y-125730000D01*
X105410000Y-132080000D02*
X101600000Y-132080000D01*
X113030000Y-139700000D02*
X105410000Y-132080000D01*
X147155002Y-139700000D02*
X150965002Y-135890000D01*
X142240000Y-139700000D02*
X147155002Y-139700000D01*
X142240000Y-139700000D02*
X113030000Y-139700000D01*
X142645002Y-139700000D02*
X142240000Y-139700000D01*
X150965002Y-135890000D02*
X152400000Y-135890000D01*
X152400000Y-135890000D02*
X153670000Y-134620000D01*
X153670000Y-134620000D02*
X153670000Y-132080000D01*
X153670000Y-132080000D02*
X152400000Y-130810000D01*
X152400000Y-130810000D02*
X151130000Y-130810000D01*
X101600000Y-129540000D02*
X114300000Y-129540000D01*
X114300000Y-129540000D02*
X123190000Y-138430000D01*
X123190000Y-138430000D02*
X141490000Y-138430000D01*
X146570000Y-133350000D02*
X151130000Y-133350000D01*
X141490000Y-138430000D02*
X146570000Y-133350000D01*
X128270000Y-82550000D02*
X134620000Y-88900000D01*
X120650000Y-82550000D02*
X128270000Y-82550000D01*
X105410000Y-97790000D02*
X120650000Y-82550000D01*
X101600000Y-104140000D02*
X105410000Y-100330000D01*
X105410000Y-100330000D02*
X105410000Y-97790000D01*
X150030000Y-90170000D02*
X151130000Y-90170000D01*
X147320000Y-87460000D02*
X150030000Y-90170000D01*
X147320000Y-83820000D02*
X147320000Y-87460000D01*
X144780000Y-81280000D02*
X147320000Y-83820000D01*
X119380000Y-81280000D02*
X144780000Y-81280000D01*
X101600000Y-99060000D02*
X119380000Y-81280000D01*
D26*
X62230000Y-97790000D02*
X64770000Y-95250000D01*
X62230000Y-129330000D02*
X62230000Y-97790000D01*
X66040000Y-135890000D02*
X66040000Y-133140000D01*
X64770000Y-128270000D02*
X62970000Y-130070000D01*
X66040000Y-133140000D02*
X62970000Y-130070000D01*
X62970000Y-130070000D02*
X62230000Y-129330000D01*
D27*
X96520000Y-149860000D02*
X97945001Y-148434999D01*
X90170000Y-87630000D02*
X92710000Y-87630000D01*
X92710000Y-87630000D02*
X97790000Y-92710000D01*
X90170000Y-90170000D02*
X92710000Y-90170000D01*
X92710000Y-90170000D02*
X97945001Y-95405001D01*
X97945001Y-97634999D02*
X97945001Y-95405001D01*
X97945001Y-95405001D02*
X97945001Y-94135001D01*
X90170000Y-92710000D02*
X92710000Y-92710000D01*
X92710000Y-92710000D02*
X97945001Y-97945001D01*
X97945001Y-124615001D02*
X97945001Y-97945001D01*
X97945001Y-97945001D02*
X97945001Y-97634999D01*
X90170000Y-120650000D02*
X92710000Y-120650000D01*
X92710000Y-120650000D02*
X97945001Y-125885001D01*
X97945001Y-125885001D02*
X97945001Y-124615001D01*
X90170000Y-123190000D02*
X92710000Y-123190000D01*
X92710000Y-123190000D02*
X97945001Y-128425001D01*
X97945001Y-128425001D02*
X97945001Y-125885001D01*
X90170000Y-125730000D02*
X92710000Y-125730000D01*
X92710000Y-125730000D02*
X97945001Y-130965001D01*
X97945001Y-148434999D02*
X97945001Y-130965001D01*
X97945001Y-130965001D02*
X97945001Y-128425001D01*
X97945001Y-94135001D02*
X97945001Y-92865001D01*
X82550000Y-80010000D02*
X90170000Y-87630000D01*
X77470000Y-80010000D02*
X82550000Y-80010000D01*
X82550000Y-113030000D02*
X90170000Y-120650000D01*
X77470000Y-113030000D02*
X82550000Y-113030000D01*
D25*
X144780000Y-107950000D02*
X151130000Y-114300000D01*
X144780000Y-104140000D02*
X144780000Y-107950000D01*
X144780000Y-143557500D02*
X144780000Y-143510000D01*
X141017500Y-147320000D02*
X144780000Y-143557500D01*
X125730000Y-147320000D02*
X141017500Y-147320000D01*
D26*
X71850000Y-147860000D02*
X78740000Y-147860000D01*
X66040000Y-153670000D02*
X71850000Y-147860000D01*
X67171370Y-92750000D02*
X64770000Y-92750000D01*
X71850000Y-97428630D02*
X67171370Y-92750000D01*
X71850000Y-147860000D02*
X71850000Y-131350000D01*
X66270000Y-125770000D02*
X64770000Y-125770000D01*
X71850000Y-131350000D02*
X66270000Y-125770000D01*
X66270000Y-125770000D02*
X66270000Y-114070000D01*
X71850000Y-108490000D02*
X71850000Y-97428630D01*
X66270000Y-114070000D02*
X71850000Y-108490000D01*
M02*
